<svg id="Blank_Star" data-name="Blank Star" xmlns="http://www.w3.org/2000/svg" width="25.059" height="24" viewBox="0 0 25.059 24">
  <g id="Polygon_2" data-name="Polygon 2" fill="none">
    <path d="M12.529,0l3.132,8.925,9.4.242L17.6,14.925,20.273,24l-7.744-5.367L4.786,24l2.675-9.075L0,9.167l9.4-.242Z" stroke="none"/>
    <path d="M 12.52941131591797 3.019760131835938 L 10.11225128173828 9.907150268554688 L 2.838293075561523 10.09444141387939 L 8.613851547241211 14.55163955688477 L 6.546863555908203 21.5628662109375 L 12.52941131591797 17.41677093505859 L 18.51195907592773 21.5628662109375 L 16.44497108459473 14.55163955688477 L 22.22052764892578 10.09443378448486 L 14.94657135009766 9.907150268554688 L 12.52941131591797 3.019760131835938 M 12.52941131591797 0 L 15.66176128387451 8.925230026245117 L 25.0588207244873 9.167180061340332 L 17.5976619720459 14.92523002624512 L 20.27301025390625 24 L 12.52941131591797 18.6334400177002 L 4.785810470581055 24 L 7.461160659790039 14.92523002624512 L 1.9073486328125e-06 9.167189598083496 L 9.397061347961426 8.925230026245117 L 12.52941131591797 0 Z" stroke="none" fill="#c6c6c6"/>
  </g>
</svg>
