<svg id="Date_Default" data-name="Date Default" xmlns="http://www.w3.org/2000/svg" width="24" height="24" viewBox="0 0 24 24">
  <g id="Outlined">
    <g id="Action">
      <g id="Outlined-_-Action-_-date_range" data-name="Outlined-/-Action-/-date_range">
        <g id="Group_92" data-name="Group 92">
          <path id="Path" d="M0,0H24V24H0Z" fill="none" fill-rule="evenodd"/>
          <path id="_-Icon-Color" data-name="🔹-Icon-Color" d="M7,11H9v2H7ZM21,6V20a2.006,2.006,0,0,1-2,2H5a2,2,0,0,1-2-2L3.01,6A1.991,1.991,0,0,1,5,4H6V2H8V4h8V2h2V4h1A2.006,2.006,0,0,1,21,6ZM5,8H19V6H5ZM19,20V10H5V20Zm-4-7h2V11H15Zm-4,0h2V11H11Z" fill="#c6c6c6" fill-rule="evenodd"/>
        </g>
      </g>
    </g>
  </g>
</svg>
