<svg id="FB_Logo" data-name="FB Logo" xmlns="http://www.w3.org/2000/svg" width="50" height="49.75" viewBox="0 0 50 49.75">
  <rect id="Rectangle_97" data-name="Rectangle 97" width="49.748" height="49.748" rx="4" fill="#1b2c60"/>
  <g id="Group_147" data-name="Group 147">
    <circle id="Ellipse_20" data-name="Ellipse 20" cx="23.874" cy="23.874" r="23.874" transform="translate(1 1)" fill="#fff"/>
    <path id="icons8-facebook-48" d="M26.165,2.013a24.986,24.986,0,0,0-2.9,49.681V33.626H19.23a3.284,3.284,0,0,1-3.285-3.285h0a3.284,3.284,0,0,1,3.285-3.285h4.033V22.683c0-7.24,3.528-10.418,9.545-10.418.893,0,1.655.02,2.3.053a2.982,2.982,0,0,1,2.823,3h0a3,3,0,0,1-3,3H33.828c-2.555,0-3.448,2.423-3.448,5.153v3.593h4.675a2.411,2.411,0,0,1,2.383,2.778l-.27,1.753a2.411,2.411,0,0,1-2.383,2.043H30.38V51.749A24.989,24.989,0,0,0,26.165,2.013Z" transform="translate(-2 -2)" fill="#1b2c60"/>
  </g>
</svg>
