<svg id="Half_Star" data-name="Half Star" xmlns="http://www.w3.org/2000/svg" width="25.059" height="24" viewBox="0 0 25.059 24">
  <g id="Polygon_3" data-name="Polygon 3" transform="translate(0)" fill="none">
    <path d="M12.529,0l3.132,8.925,9.4.242L17.6,14.925,20.273,24l-7.744-5.367L4.786,24l2.675-9.075L0,9.167l9.4-.242Z" stroke="none"/>
    <path d="M 12.52933502197266 3.019758224487305 L 10.11219501495361 9.907096862792969 L 2.838287353515625 10.09438037872314 L 8.613805770874023 14.55155658721924 L 6.546836853027344 21.56272315979004 L 12.52933502197266 17.41665649414063 L 18.51183319091797 21.56272315979004 L 16.44486618041992 14.55155658721924 L 22.22037696838379 10.09438037872314 L 14.9464750289917 9.907096862792969 L 12.52933502197266 3.019758224487305 M 12.52933502197266 -3.814697265625e-06 L 15.66166496276855 8.925176620483398 L 25.05866432189941 9.167126655578613 L 17.59755516052246 14.92514610290527 L 20.27288436889648 23.99985694885254 L 12.52933502197266 18.63332748413086 L 4.785785675048828 23.99985694885254 L 7.461114883422852 14.92514610290527 L -5.7220458984375e-06 9.167126655578613 L 9.397005081176758 8.925176620483398 L 12.52933502197266 -3.814697265625e-06 Z" stroke="none" fill="#e2e2e2"/>
  </g>
  <path id="Subtraction_1" data-name="Subtraction 1" d="M4.786,24h0l2.675-9.074L0,9.167l9.4-.242L12.529,0V18.633L4.786,24Z" fill="#eca740"/>
</svg>
