<svg id="Instagram_logo_2022" xmlns="http://www.w3.org/2000/svg" xmlns:xlink="http://www.w3.org/1999/xlink" width="50" height="50" viewBox="0 0 50 50">
  <defs>
    <radialGradient id="radial-gradient" cx="0.968" cy="0.469" r="0.639" gradientTransform="matrix(-0.962, 0.271, -0.196, -0.693, 1.4, 3.775)" gradientUnits="objectBoundingBox">
      <stop offset="0" stop-color="#ff005f"/>
      <stop offset="1" stop-color="#fc01d8"/>
    </radialGradient>
    <radialGradient id="radial-gradient-2" cx="0.266" cy="1.077" r="0.798" gradientTransform="translate(-1.918 2.444) rotate(-90) scale(1 1.061)" gradientUnits="objectBoundingBox">
      <stop offset="0" stop-color="#fc0"/>
      <stop offset="0.124" stop-color="#fc0"/>
      <stop offset="0.567" stop-color="#fe4a05"/>
      <stop offset="0.694" stop-color="#ff0f3f"/>
      <stop offset="1" stop-color="#fe0657" stop-opacity="0"/>
    </radialGradient>
    <radialGradient id="radial-gradient-3" cx="0.525" cy="0.986" r="0.33" gradientTransform="matrix(0.502, -0.865, 1.126, 0.653, -2.289, 1.092)" gradientUnits="objectBoundingBox">
      <stop offset="0" stop-color="#fc0"/>
      <stop offset="1" stop-color="#fc0" stop-opacity="0"/>
    </radialGradient>
    <radialGradient id="radial-gradient-4" cx="0.136" cy="0.041" r="0.632" gradientTransform="matrix(-0.963, 0.271, -0.092, -0.328, 0.547, 0.093)" gradientUnits="objectBoundingBox">
      <stop offset="0" stop-color="#780cff"/>
      <stop offset="1" stop-color="#820bff" stop-opacity="0"/>
    </radialGradient>
  </defs>
  <path id="Path_88" data-name="Path 88" d="M96.823,18.143c-10.437,0-13.49.011-14.083.06a12.4,12.4,0,0,0-4.927,1.239,9.981,9.981,0,0,0-2.873,2.1,10.733,10.733,0,0,0-2.9,6.082c-.169,1.169-.218,1.408-.228,7.381,0,1.991,0,4.611,0,8.126,0,10.432.012,13.482.062,14.074a12.563,12.563,0,0,0,1.192,4.831A10.532,10.532,0,0,0,79.9,67.616a17.733,17.733,0,0,0,3.63.481c.619.027,6.929.046,13.244.046S109.4,68.135,110,68.1a17.075,17.075,0,0,0,3.761-.492,10.468,10.468,0,0,0,6.826-5.589,12.357,12.357,0,0,0,1.179-4.738c.034-.431.048-7.3.048-14.159s-.015-13.717-.049-14.147a12.218,12.218,0,0,0-1.2-4.785,9.911,9.911,0,0,0-2.14-2.933,10.793,10.793,0,0,0-6.087-2.889c-1.168-.169-1.4-.219-7.376-.229Z" transform="translate(-71.815 -18.143)" fill="url(#radial-gradient)"/>
  <path id="Path_89" data-name="Path 89" d="M96.823,18.143c-10.437,0-13.49.011-14.083.06a12.4,12.4,0,0,0-4.927,1.239,9.981,9.981,0,0,0-2.873,2.1,10.733,10.733,0,0,0-2.9,6.082c-.169,1.169-.218,1.408-.228,7.381,0,1.991,0,4.611,0,8.126,0,10.432.012,13.482.062,14.074a12.563,12.563,0,0,0,1.192,4.831A10.532,10.532,0,0,0,79.9,67.616a17.733,17.733,0,0,0,3.63.481c.619.027,6.929.046,13.244.046S109.4,68.135,110,68.1a17.075,17.075,0,0,0,3.761-.492,10.468,10.468,0,0,0,6.826-5.589,12.357,12.357,0,0,0,1.179-4.738c.034-.431.048-7.3.048-14.159s-.015-13.717-.049-14.147a12.218,12.218,0,0,0-1.2-4.785,9.911,9.911,0,0,0-2.14-2.933,10.793,10.793,0,0,0-6.087-2.889c-1.168-.169-1.4-.219-7.376-.229Z" transform="translate(-71.815 -18.143)" fill="url(#radial-gradient-2)"/>
  <path id="Path_90" data-name="Path 90" d="M96.823,18.143c-10.437,0-13.49.011-14.083.06a12.4,12.4,0,0,0-4.927,1.239,9.981,9.981,0,0,0-2.873,2.1,10.733,10.733,0,0,0-2.9,6.082c-.169,1.169-.218,1.408-.228,7.381,0,1.991,0,4.611,0,8.126,0,10.432.012,13.482.062,14.074a12.563,12.563,0,0,0,1.192,4.831A10.532,10.532,0,0,0,79.9,67.616a17.733,17.733,0,0,0,3.63.481c.619.027,6.929.046,13.244.046S109.4,68.135,110,68.1a17.075,17.075,0,0,0,3.761-.492,10.468,10.468,0,0,0,6.826-5.589,12.357,12.357,0,0,0,1.179-4.738c.034-.431.048-7.3.048-14.159s-.015-13.717-.049-14.147a12.218,12.218,0,0,0-1.2-4.785,9.911,9.911,0,0,0-2.14-2.933,10.793,10.793,0,0,0-6.087-2.889c-1.168-.169-1.4-.219-7.376-.229Z" transform="translate(-71.815 -18.143)" fill="url(#radial-gradient-3)"/>
  <path id="Path_91" data-name="Path 91" d="M96.823,18.143c-10.437,0-13.49.011-14.083.06a12.4,12.4,0,0,0-4.927,1.239,9.981,9.981,0,0,0-2.873,2.1,10.733,10.733,0,0,0-2.9,6.082c-.169,1.169-.218,1.408-.228,7.381,0,1.991,0,4.611,0,8.126,0,10.432.012,13.482.062,14.074a12.563,12.563,0,0,0,1.192,4.831A10.532,10.532,0,0,0,79.9,67.616a17.733,17.733,0,0,0,3.63.481c.619.027,6.929.046,13.244.046S109.4,68.135,110,68.1a17.075,17.075,0,0,0,3.761-.492,10.468,10.468,0,0,0,6.826-5.589,12.357,12.357,0,0,0,1.179-4.738c.034-.431.048-7.3.048-14.159s-.015-13.717-.049-14.147a12.218,12.218,0,0,0-1.2-4.785,9.911,9.911,0,0,0-2.14-2.933,10.793,10.793,0,0,0-6.087-2.889c-1.168-.169-1.4-.219-7.376-.229Z" transform="translate(-71.815 -18.143)" fill="url(#radial-gradient-4)"/>
  <path id="Path_92" data-name="Path 92" d="M52.555,33.973c-5.049,0-5.682.022-7.665.112a13.651,13.651,0,0,0-4.512.863,9.506,9.506,0,0,0-5.439,5.432,13.56,13.56,0,0,0-.864,4.509c-.089,1.981-.112,2.615-.112,7.66s.022,5.676.112,7.658a13.644,13.644,0,0,0,.864,4.509,9.51,9.51,0,0,0,5.436,5.435,13.663,13.663,0,0,0,4.513.863c1.983.09,2.616.112,7.665.112s5.681-.022,7.664-.112a13.67,13.67,0,0,0,4.514-.863,9.522,9.522,0,0,0,5.437-5.434,13.761,13.761,0,0,0,.864-4.509c.089-1.981.112-2.613.112-7.658s-.023-5.678-.112-7.66a13.754,13.754,0,0,0-.864-4.509,9.508,9.508,0,0,0-5.438-5.433,13.694,13.694,0,0,0-4.516-.863c-1.983-.09-2.614-.112-7.665-.112Zm-1.668,3.348h1.668c4.964,0,5.552.018,7.512.107a10.3,10.3,0,0,1,3.452.64,6.158,6.158,0,0,1,3.528,3.526,10.258,10.258,0,0,1,.64,3.448c.089,1.958.108,2.547.108,7.5s-.019,5.546-.108,7.5a10.268,10.268,0,0,1-.64,3.448,6.163,6.163,0,0,1-3.528,3.523,10.261,10.261,0,0,1-3.452.64c-1.96.089-2.548.108-7.512.108S47,67.75,45.043,67.661a10.319,10.319,0,0,1-3.452-.64A6.157,6.157,0,0,1,38.062,63.5a10.258,10.258,0,0,1-.64-3.448c-.089-1.958-.107-2.547-.107-7.507s.018-5.546.107-7.5a10.278,10.278,0,0,1,.64-3.449,6.159,6.159,0,0,1,3.529-3.526,10.277,10.277,0,0,1,3.452-.641c1.715-.077,2.38-.1,5.844-.1Zm11.591,3.084a2.229,2.229,0,1,0,2.231,2.228,2.23,2.23,0,0,0-2.231-2.228Zm-9.923,2.6A9.539,9.539,0,1,0,62.1,52.55a9.544,9.544,0,0,0-9.545-9.54Zm0,3.348a6.192,6.192,0,1,1-6.2,6.192,6.195,6.195,0,0,1,6.2-6.192Z" transform="translate(-27.545 -27.553)" fill="#fff"/>
</svg>
