<svg xmlns="http://www.w3.org/2000/svg" width="24" height="24" viewBox="0 0 24 24">
  <g id="Kids_Default" data-name="Kids Default" transform="translate(0 0)">
    <g id="Group_18" data-name="Group 18">
      <path id="Path_10" data-name="Path 10" d="M22.391,5.976a11.95,11.95,0,0,0-4.367-4.367A11.738,11.738,0,0,0,12,0,11.738,11.738,0,0,0,5.977,1.609,11.947,11.947,0,0,0,1.61,5.976,11.738,11.738,0,0,0,0,12a11.74,11.74,0,0,0,1.609,6.023,11.95,11.95,0,0,0,4.367,4.367A11.739,11.739,0,0,0,12,24a11.739,11.739,0,0,0,6.024-1.609,11.947,11.947,0,0,0,4.367-4.367A11.74,11.74,0,0,0,24,12,11.741,11.741,0,0,0,22.391,5.976ZM21.2,15.883a9.858,9.858,0,0,1-5.32,5.32,9.856,9.856,0,0,1-7.766,0,9.858,9.858,0,0,1-5.32-5.32,9.857,9.857,0,0,1,0-7.766A9.86,9.86,0,0,1,8.118,2.8a9.86,9.86,0,0,1,7.766,0,9.86,9.86,0,0,1,5.32,5.32,9.856,9.856,0,0,1,0,7.766Z" transform="translate(0 0)" fill="#c6c6c6"/>
      <path id="Path_11" data-name="Path 11" d="M120.634,255.813h-10a1,1,0,0,0,0,2l5.02,2.667,4.98-2.667a1,1,0,0,0,0-2Z" transform="translate(-103.634 -241.813)" fill="#c6c6c6"/>
      <path id="Path_12" data-name="Path 12" d="M111.634,113.633a2,2,0,1,0-1.414-.586A1.928,1.928,0,0,0,111.634,113.633Z" transform="translate(-103.634 -103.633)" fill="#c6c6c6"/>
      <path id="Path_13" data-name="Path 13" d="M257.806,109.631a2,2,0,1,0,1.414.586A1.928,1.928,0,0,0,257.806,109.631Z" transform="translate(-241.806 -103.631)" fill="#c6c6c6"/>
    </g>
  </g>
</svg>
