<svg xmlns="http://www.w3.org/2000/svg" width="18.583" height="24" viewBox="0 0 18.583 24">
  <g id="Location_Default" data-name="Location Default" transform="translate(0)">
    <path id="_11143071741579177871" data-name="11143071741579177871" d="M144.812,118.4a9.177,9.177,0,0,0-8.638,12.5c1.747,4.224,4.589,7.7,7.622,11.036a1.312,1.312,0,0,0,2.033-.032c.54-.556,1.032-1.143,1.524-1.731a41.21,41.21,0,0,0,5.939-8.956A9.178,9.178,0,0,0,144.812,118.4Zm-.079,13.291A4.192,4.192,0,1,1,149,127.5,4.2,4.2,0,0,1,144.733,131.69Z" transform="translate(-135.508 -118.399)" fill="#c6c6c6"/>
  </g>
</svg>
