<svg id="Search" xmlns="http://www.w3.org/2000/svg" width="23.997" height="24" viewBox="0 0 23.997 24">
  <path id="_11604655931579177881" data-name="11604655931579177881" d="M135.271,146.475q-2.861-2.883-5.752-5.752c-.352-.352-.44-.572-.176-1.042a9.318,9.318,0,0,0-8.129-13.882,9.221,9.221,0,0,0-9.274,8.79,9.3,9.3,0,0,0,13.867,8.628.743.743,0,0,1,1.086.176q2.8,2.861,5.62,5.693a2.033,2.033,0,0,0,1.321.7,1.92,1.92,0,0,0,1.908-1.086A1.89,1.89,0,0,0,135.271,146.475Zm-14.043-4.681a6.655,6.655,0,1,1,6.618-6.633A6.663,6.663,0,0,1,121.228,141.794Z" transform="translate(-111.929 -125.8)" fill="#c6c6c6"/>
</svg>
