<svg id="Twitter_Logo" data-name="Twitter Logo" xmlns="http://www.w3.org/2000/svg" width="50" height="50" viewBox="0 0 50 50">
  <rect id="Rectangle_97" data-name="Rectangle 97" width="50" height="50" rx="4" fill="#2daae1"/>
  <g id="twitter-icon" transform="translate(-125.943 -1.281)">
    <circle id="Ellipse_19" data-name="Ellipse 19" cx="24.5" cy="24.5" r="24.5" transform="translate(126.444 2.281)" fill="#2daae1"/>
    <path id="Path_93" data-name="Path 93" d="M263.533,146.344a12.869,12.869,0,0,1-3.7,1.015,6.464,6.464,0,0,0,2.834-3.566,12.876,12.876,0,0,1-4.094,1.564,6.448,6.448,0,0,0-11.149,4.411,6.519,6.519,0,0,0,.166,1.469A18.3,18.3,0,0,1,234.3,144.5a6.452,6.452,0,0,0,1.994,8.6,6.416,6.416,0,0,1-2.92-.806v.081a6.448,6.448,0,0,0,5.17,6.319,6.412,6.412,0,0,1-1.7.226,6.541,6.541,0,0,1-1.213-.113,6.453,6.453,0,0,0,6.02,4.476,12.978,12.978,0,0,1-9.542,2.668,18.24,18.24,0,0,0,9.88,2.9c11.855,0,18.338-9.821,18.338-18.338q0-.419-.02-.834A13.133,13.133,0,0,0,263.533,146.344Z" transform="translate(-96.88 -129.308)" fill="#fff"/>
  </g>
</svg>
